<svg width="14" height="14" viewBox="0 0 14 14" fill="none" xmlns="http://www.w3.org/2000/svg">
<path d="M13.6544 0.150827C13.2856 0.0428744 4.26251 -0.855475 1.09367 3.42567C-0.309771 5.32223 -0.330853 7.9221 1.02334 11.1525C0.679825 11.8655 0.379099 12.6166 0.134017 13.4091C0.0595057 13.6499 0.194283 13.9052 0.434825 13.9795C0.479669 13.9934 0.525087 14 0.56993 14C0.764399 14 0.944949 13.8744 1.00521 13.6787C3.42043 5.87028 11.2694 2.09267 13.6763 1.13835C13.9105 1.0454 14.2236 0.317405 13.6544 0.150827Z" fill="#84829A"/>
<path d="M2.47189 12.1297C3.77829 12.6777 5.0845 12.9586 6.29919 12.9586C7.391 12.9586 8.40919 12.7342 9.2866 12.279C11.0524 11.3629 12.1315 9.61074 12.407 7.21125C12.6878 4.76582 13.0373 3.23409 13.3288 2.29705C10.7335 3.49421 5.16875 6.59733 2.47189 12.1297Z" fill="#84829A"/>
</svg>
