<svg width="12" height="12" viewBox="0 0 12 12" fill="none" xmlns="http://www.w3.org/2000/svg">
<path d="M11.3433 0.242391L5.02577 6.58323C4.95335 6.54127 4.87719 6.50611 4.79827 6.47823L0.627435 5.06656C0.501303 5.03495 0.389349 4.9621 0.309355 4.85958C0.229361 4.75706 0.185913 4.63076 0.185913 4.50072C0.185913 4.37069 0.229361 4.24439 0.309355 4.14187C0.389349 4.03935 0.501303 3.9665 0.627435 3.93489L10.9758 0.254058C11.0434 0.231089 11.1143 0.219268 11.1858 0.219058C11.2392 0.218197 11.2924 0.226079 11.3433 0.242391Z" fill="#84829A"/>
<path d="M11.7458 1.02405L8.06497 11.3841C8.02438 11.5048 7.94539 11.6089 7.84005 11.6806C7.73472 11.7522 7.60884 11.7874 7.48163 11.7807C7.35296 11.7866 7.22596 11.7497 7.12044 11.6759C7.01491 11.602 6.93681 11.4953 6.8983 11.3724L5.50997 7.20155C5.48208 7.12264 5.44693 7.04648 5.40497 6.97405L11.7575 0.656552C11.7933 0.777107 11.7892 0.906013 11.7458 1.02405Z" fill="#84829A"/>
</svg>
