<svg width="152" height="152" viewBox="0 0 152 152" fill="none" xmlns="http://www.w3.org/2000/svg">
<path d="M11.5586 144.61V146.479H0.837891V144.61H11.5586ZM7.19727 140.045V151.432H5.20996V140.045H7.19727Z" fill="#E5E5E5"/>
<path d="M46.5586 109.61V111.479H35.8379V109.61H46.5586ZM42.1973 105.045V116.432H40.21V105.045H42.1973Z" fill="#E5E5E5"/>
<path d="M77.1973 4.61035H81.5586V6.49023H77.1973V11.4316H75.1992V6.49023H70.8379V4.61035H75.1992V0.0449219H77.1973V4.61035Z" fill="#E5E5E5"/>
<path d="M81.5586 39.6104V41.4795H70.8379V39.6104H81.5586ZM77.1973 35.0449V46.4316H75.21V35.0449H77.1973Z" fill="#E5E5E5"/>
<path d="M81.5586 74.6104V76.4795H70.8379V74.6104H81.5586ZM77.1973 70.0449V81.4316H75.21V70.0449H77.1973Z" fill="#6246E5"/>
<path d="M81.5586 109.61V111.479H70.8379V109.61H81.5586ZM77.1973 105.045V116.432H75.21V105.045H77.1973Z" fill="#E5E5E5"/>
<path d="M81.5586 144.61V146.479H70.8379V144.61H81.5586ZM77.1973 140.045V151.432H75.21V140.045H77.1973Z" fill="#E5E5E5"/>
<path d="M116.559 4.61035V6.47949H105.838V4.61035H116.559ZM112.197 0.0449219V11.4316H110.21V0.0449219H112.197Z" fill="#E5E5E5"/>
<path d="M116.559 39.6104V41.4795H105.838V39.6104H116.559ZM112.197 35.0449V46.4316H110.21V35.0449H112.197Z" fill="#E5E5E5"/>
<path d="M116.559 74.6104V76.4795H105.838V74.6104H116.559ZM112.197 70.0449V81.4316H110.21V70.0449H112.197Z" fill="#E5E5E5"/>
<path d="M116.559 109.61V111.479H105.838V109.61H116.559ZM112.197 105.045V116.432H110.21V105.045H112.197Z" fill="#E5E5E5"/>
<path d="M116.559 144.61V146.479H105.838V144.61H116.559ZM112.197 140.045V151.432H110.21V140.045H112.197Z" fill="#E5E5E5"/>
<path d="M147.197 4.61035H151.559V6.49023H147.197V11.4316H145.199V6.49023H140.838V4.61035H145.199V0.0449219H147.197V4.61035Z" fill="#FF7152"/>
<path d="M147.197 39.6104H151.559V41.4902H147.197V46.4316H145.199V41.4902H140.838V39.6104H145.199V35.0449H147.197V39.6104Z" fill="#E5E5E5"/>
<path d="M151.559 74.6104V76.4795H140.838V74.6104H151.559ZM147.197 70.0449V81.4316H145.21V70.0449H147.197Z" fill="#E5E5E5"/>
<path d="M151.559 109.61V111.479H140.838V109.61H151.559ZM147.197 105.045V116.432H145.21V105.045H147.197Z" fill="#E5E5E5"/>
<path d="M151.559 144.61V146.479H140.838V144.61H151.559ZM147.197 140.045V151.432H145.21V140.045H147.197Z" fill="#E5E5E5"/>
</svg>
