<svg width="20" height="20" viewBox="0 0 20 20" fill="none" xmlns="http://www.w3.org/2000/svg">
<path d="M11.5073 10.0018L1.46381 19.673C0.993483 19.3516 0.714243 18.8169 0.719181 18.2473V1.75622C0.714243 1.18659 0.993483 0.651949 1.46381 0.330525L11.5073 10.0018Z" fill="#2196F3"/>
<path d="M15.0217 6.62364L11.5073 10.0018L1.46381 0.330525C1.50165 0.301196 1.54107 0.273918 1.58185 0.248803C2.11266 -0.0729184 2.77569 -0.0833047 3.31633 0.22156L15.0217 6.62364Z" fill="#4CAF50"/>
<path d="M19.2807 10.0018C19.2872 10.6448 18.9378 11.2388 18.3726 11.5456L15.0217 13.3799L11.5073 10.0018L15.0217 6.62364L18.3726 8.45799C18.9378 8.76473 19.2872 9.35871 19.2807 10.0018Z" fill="#F0BB1F"/>
<path d="M15.0217 13.3799L3.31633 19.782C2.77449 20.0821 2.11398 20.0717 1.58185 19.7547C1.54107 19.7296 1.50165 19.7023 1.46381 19.673L11.5073 10.0018L15.0217 13.3799Z" fill="#F15A2B"/>
</svg>
