<svg width="113" height="72" viewBox="0 0 113 72" fill="none" xmlns="http://www.w3.org/2000/svg">
<path d="M71.8192 37.7207C70.4609 38.0249 69.1379 38.5884 67.9323 39.3758C64.7915 41.3771 62.9642 44.2339 63.8512 45.756C64.7381 47.2782 68.0032 46.8889 71.1439 44.8876C72.3657 44.128 73.4511 43.1572 74.3333 42.0352C74.7427 41.4931 74.8161 40.8177 74.5209 40.3127L73.3687 38.3354C73.0756 37.8288 72.4675 37.5879 71.8192 37.7207Z" fill="#D5D6DB"/>
<path d="M63.9322 10.7275C62.9472 10.9483 61.9878 11.3571 61.1136 11.9282C58.8367 13.3789 57.511 15.4503 58.1536 16.5531C58.7962 17.6559 61.1646 17.3734 63.4412 15.9228C64.3271 15.3717 65.114 14.6674 65.7538 13.8538C66.0503 13.4608 66.1034 12.9715 65.8895 12.6054L65.0552 11.1736C64.8429 10.8065 64.4023 10.6314 63.9322 10.7275Z" fill="#D5D6DB"/>
<path d="M51.118 11.8579C50.8987 11.8335 50.6649 11.8919 50.4622 12.0214L45.114 15.4296C44.6666 15.7138 44.4876 16.2612 44.7145 16.6523C44.7664 16.742 44.8375 16.8185 44.9237 16.8775L58.1053 25.9625L75.9388 14.5978L51.118 11.8579Z" fill="#029BC5"/>
<path d="M107.495 10.5734L58.963 41.1255L30.2502 52.5509L15.6071 55.4616L13.9962 52.7244L94.8913 2.77778C97.3021 1.2829 99.9877 0.365351 102.677 0.11826C103.854 0.0163644 105.017 0.055527 106.138 0.234323C107.132 0.38503 108.075 0.675742 108.939 1.09783C109.903 1.57607 111.737 1.63122 112.331 2.58404C112.333 2.58251 113.735 6.95693 107.495 10.5734Z" fill="#E1E6E9"/>
<path d="M59.6063 37.0829L38.611 70.5529C38.3488 71.023 38.5044 71.5495 38.9583 71.7288C39.2369 71.8388 39.5778 71.7953 39.8642 71.6133L45.2082 68.2232C46.2361 67.5708 47.1462 66.7422 47.8823 65.7887L88.5987 17.9197L59.6063 37.0829Z" fill="#029BC5"/>
<path d="M6.62667 35.9654C6.27645 35.8457 5.85966 35.9078 5.50784 36.1319L1.09034 38.9453C0.488428 39.3283 0.248577 40.0648 0.554439 40.5904C0.612715 40.6904 0.688414 40.7783 0.779151 40.8508L13.1559 50.7631L26.1689 42.635L6.62667 35.9654Z" fill="#029BC5"/>
<path d="M105.341 0.636566C104.187 0.451134 102.989 0.411538 101.776 0.518146C100.596 2.16922 99.8409 4.02394 99.5874 5.89736C99.5689 6.27367 99.8723 6.54454 100.265 6.50236C100.387 6.4891 100.509 6.44619 100.618 6.37743L108.226 1.53315C107.336 1.09455 106.365 0.792703 105.341 0.636566Z" fill="#029BC5"/>
<path d="M88.7621 9.54472L93.7292 6.40776L98.3558 14.2768L93.3888 17.4137L88.7621 9.54472Z" fill="#D5D6DB"/>
<path d="M85.6367 12.6569C85.0382 13.036 84.7989 13.7648 85.1028 14.2845L85.5951 15.1265C85.9189 15.633 86.6582 15.722 87.2465 15.3253C87.8063 14.9475 88.0318 14.2609 87.762 13.7538L87.2697 12.9119C86.966 12.3926 86.2352 12.2783 85.6367 12.6569Z" fill="#3A556A"/>
<path d="M81.1723 15.4293C80.5737 15.8085 80.3345 16.5373 80.6384 17.057L81.1307 17.899C81.4545 18.4054 82.1938 18.4945 82.7821 18.0978C83.3419 17.72 83.5673 17.0333 83.2975 16.5263L82.8052 15.6843C82.5014 15.1652 81.7705 15.0509 81.1723 15.4293Z" fill="#3A556A"/>
<path d="M76.7064 18.2027C76.1085 18.5823 75.8701 19.3102 76.1738 19.8295L76.6661 20.6715C76.9899 21.1779 77.7292 21.267 78.3175 20.8703C78.8773 20.4925 79.1027 19.8058 78.8329 19.2988L78.3406 18.4569C78.0368 17.9372 77.3052 17.8234 76.7064 18.2027Z" fill="#3A556A"/>
<path d="M72.2421 20.9751C71.6442 21.3547 71.4058 22.0826 71.7095 22.6019L72.2018 23.4439C72.5256 23.9504 73.2649 24.0394 73.8532 23.6427C74.413 23.2649 74.6384 22.5782 74.3687 22.0712L73.8763 21.2292C73.5722 20.7097 72.8406 20.5959 72.2421 20.9751Z" fill="#3A556A"/>
<path d="M67.7782 23.7477C67.18 24.1275 66.9414 24.8558 67.2452 25.3753L67.7378 26.2176C68.0415 26.7369 68.7728 26.8506 69.3711 26.4716C69.9695 26.0926 70.2084 25.3644 69.9047 24.8452L69.4121 24.0028C69.1092 23.4831 68.3782 23.3686 67.7795 23.7469L67.7782 23.7477Z" fill="#3A556A"/>
<path d="M63.3138 26.5202C62.7156 26.9 62.477 27.6282 62.7808 28.1477L63.2734 28.9901C63.5771 29.5093 64.3083 29.6231 64.9067 29.2441C65.5051 28.8651 65.744 28.1369 65.4403 27.6176L64.9477 26.7753C64.6448 26.2555 63.9138 26.1411 63.3151 26.5194L63.3138 26.5202Z" fill="#3A556A"/>
<path d="M58.8492 29.2927C58.2509 29.6725 58.0124 30.4007 58.3162 30.9202L58.8088 31.7625C59.1132 32.2813 59.8448 32.3939 60.4426 32.0144C61.0393 31.6356 61.2777 30.9089 60.9754 30.3903L60.4828 29.548C60.1793 29.0283 59.448 28.914 58.8492 29.2927Z" fill="#3A556A"/>
<path d="M54.3846 32.0652C53.7863 32.445 53.5478 33.1733 53.8516 33.6927L54.3442 34.5351C54.6486 35.0539 55.3802 35.1665 55.978 34.787C56.5747 34.4081 56.8131 33.6814 56.5108 33.1628L56.0182 32.3205C55.7147 31.8008 54.9834 31.6865 54.3846 32.0652Z" fill="#3A556A"/>
<path d="M49.9203 34.8376C49.322 35.2174 49.0835 35.9457 49.3873 36.4651L49.8799 37.3074C50.1843 37.8262 50.9159 37.9388 51.5137 37.5593C52.1104 37.1805 52.3488 36.4538 52.0465 35.9352L51.5539 35.0929C51.2501 34.5734 50.5189 34.4591 49.9203 34.8376Z" fill="#3A556A"/>
<path d="M45.4545 37.6109C44.8561 37.9898 44.6172 38.718 44.9209 39.2373L45.4141 40.0807C45.7185 40.5995 46.4501 40.7121 47.0479 40.3326C47.6446 39.9538 47.883 39.2271 47.5807 38.7085L47.0881 37.8661C46.7846 37.3465 46.0533 37.2321 45.4545 37.6109Z" fill="#3A556A"/>
<path d="M40.9913 40.3826C40.3929 40.7615 40.154 41.4897 40.4577 42.009L40.9509 42.8524C41.2553 43.3711 41.987 43.4837 42.5847 43.1042C43.1814 42.7254 43.4198 41.9988 43.1176 41.4801L42.625 40.6378C42.3212 40.1183 41.5899 40.004 40.9913 40.3826Z" fill="#3A556A"/>
</svg>
