<svg width="148" height="151" viewBox="0 0 148 151" fill="none" xmlns="http://www.w3.org/2000/svg">
<path d="M11.5586 143.752V145.622H0.837891V143.752H11.5586ZM7.19727 139.187V150.574H5.20996V139.187H7.19727Z" fill="#E5E5E5"/>
<path d="M45.5292 108.967V110.836H34.8085V108.967H45.5292ZM41.1679 104.401V115.788H39.1805V104.401H41.1679Z" fill="#E5E5E5"/>
<path d="M79.4998 4.61035V6.47949H68.7791V4.61035H79.4998ZM75.1384 0.0449219V11.4316H73.1511V0.0449219H75.1384Z" fill="#E5E5E5"/>
<path d="M79.4998 39.3959V41.265H68.7791V39.3959H79.4998ZM75.1384 34.8304V46.2172H73.1511V34.8304H75.1384Z" fill="#E5E5E5"/>
<path d="M79.4998 74.1814V76.0505H68.7791V74.1814H79.4998ZM75.1384 69.616V81.0027H73.1511V69.616H75.1384Z" fill="#6246E5"/>
<path d="M79.4998 108.967V110.836H68.7791V108.967H79.4998ZM75.1384 104.401V115.788H73.1511V104.401H75.1384Z" fill="#E5E5E5"/>
<path d="M79.4998 143.752V145.622H68.7791V143.752H79.4998ZM75.1384 139.187V150.574H73.1511V139.187H75.1384Z" fill="#E5E5E5"/>
<path d="M113.47 4.61035V6.47949H102.75V4.61035H113.47ZM109.109 0.0449219V11.4316H107.122V0.0449219H109.109Z" fill="#E5E5E5"/>
<path d="M113.47 39.3959V41.265H102.75V39.3959H113.47ZM109.109 34.8304V46.2172H107.122V34.8304H109.109Z" fill="#E5E5E5"/>
<path d="M113.47 74.1814V76.0505H102.75V74.1814H113.47ZM109.109 69.616V81.0027H107.122V69.616H109.109Z" fill="#E5E5E5"/>
<path d="M113.47 108.967V110.836H102.75V108.967H113.47ZM109.109 104.401V115.788H107.122V104.401H109.109Z" fill="#E5E5E5"/>
<path d="M113.47 143.752V145.622H102.75V143.752H113.47ZM109.109 139.187V150.574H107.122V139.187H109.109Z" fill="#E5E5E5"/>
<path d="M147.441 4.61035V6.47949H136.72V4.61035H147.441ZM143.08 0.0449219V11.4316H141.092V0.0449219H143.08Z" fill="#FF7152"/>
<path d="M147.441 39.3959V41.265H136.72V39.3959H147.441ZM143.08 34.8304V46.2172H141.092V34.8304H143.08Z" fill="#E5E5E5"/>
<path d="M147.441 74.1814V76.0505H136.72V74.1814H147.441ZM143.08 69.616V81.0027H141.092V69.616H143.08Z" fill="#E5E5E5"/>
<path d="M147.441 108.967V110.836H136.72V108.967H147.441ZM143.08 104.401V115.788H141.092V104.401H143.08Z" fill="#E5E5E5"/>
<path d="M147.441 143.752V145.622H136.72V143.752H147.441ZM143.08 139.187V150.574H141.092V139.187H143.08Z" fill="#E5E5E5"/>
</svg>
