<svg width="398" height="390" viewBox="0 0 398 390" fill="none" xmlns="http://www.w3.org/2000/svg">
<path d="M130.185 368.189C124.418 368.189 118.741 367.799 113.179 367.045C54.9883 336.653 14.116 277.568 9.27466 208.529C24.0639 155.585 72.5967 116.753 130.185 116.753C199.518 116.753 255.725 173.038 255.725 242.471C255.725 311.903 199.518 368.189 130.185 368.189ZM115.776 368.376C120.505 368.913 125.313 369.189 130.185 369.189C200.072 369.189 256.725 312.454 256.725 242.471C256.725 172.487 200.072 115.753 130.185 115.753C73.1109 115.753 24.8625 153.592 9.09045 205.586C9.01612 204.235 8.95556 202.881 8.90892 201.523C9.05877 197.363 9.35218 193.239 9.78435 189.157C28.0342 132.682 80.9813 91.8413 143.453 91.8413C221.029 91.8413 283.918 154.818 283.918 232.506C283.918 310.194 221.029 373.171 143.453 373.171C136.352 373.171 129.375 372.643 122.558 371.625C120.273 370.585 118.012 369.501 115.776 368.376ZM8.99293 216.514C16.2014 281.515 55.2795 336.888 110.228 366.609C108.671 366.36 107.125 366.082 105.588 365.776C50.5306 337.814 12.0804 281.8 8.99293 216.514ZM108.863 367.397C110.192 367.623 111.528 367.828 112.871 368.012C114.868 369.053 116.885 370.06 118.922 371.033C117.714 370.82 116.512 370.591 115.315 370.348C113.141 369.406 110.991 368.423 108.863 367.397ZM7.88965 213.954C10.0376 279.433 47.5439 335.954 101.905 364.986C99.0732 364.333 96.2782 363.584 93.5233 362.743C44.6601 337.174 10.146 287.865 5.24611 230.1C5.78189 224.607 6.67074 219.217 7.88965 213.954ZM98.2418 365.116C100.555 365.719 102.895 366.258 105.258 366.73C106.986 367.607 108.731 368.456 110.492 369.276C107.796 368.627 105.129 367.9 102.496 367.097C101.067 366.456 99.6488 365.796 98.2418 365.116ZM4.82023 235.791C11.2108 289.57 43.1874 335.488 88.2167 360.992C83.9725 359.484 79.8332 357.755 75.8129 355.817C68.3821 351.721 61.3614 346.971 54.8282 341.644C38.3302 327.626 24.8243 310.185 15.4053 290.415C11.509 281.789 8.45643 272.699 6.3529 263.251C5.23021 256.491 4.64604 249.549 4.64604 242.471C4.64604 240.23 4.70459 238.003 4.82023 235.791ZM90.4887 362.828C91.369 363.119 92.2536 363.4 93.1423 363.673C93.638 363.932 94.1352 364.188 94.6338 364.442C93.2416 363.926 91.8598 363.387 90.4887 362.828ZM54.1892 342.413C54.6855 342.835 55.1844 343.254 55.686 343.669C36.4836 329.469 21.4668 309.919 12.8303 287.216C13.371 288.431 13.9268 289.637 14.4975 290.835C23.5994 310.983 37.2713 328.618 54.1892 342.413ZM1.98774 232.506C1.98774 241.679 2.85843 250.649 4.52158 259.337C1.89105 248.052 0.499999 236.29 0.5 224.203C0.500001 206.596 3.45147 189.679 8.88597 173.922C8.86597 174.111 8.84625 174.3 8.8268 174.49C5.90265 185.936 4.16254 197.857 3.74486 210.115C2.58839 217.408 1.98774 224.887 1.98774 232.506ZM202.741 388.948C187.114 388.948 171.919 387.098 157.362 383.603C166.472 385.047 175.813 385.796 185.328 385.796C283.379 385.796 362.864 306.198 362.864 208.01C362.864 109.822 283.379 30.2238 185.328 30.2238C108.783 30.2238 43.5522 78.7346 18.6206 146.73C16.4662 151.45 14.5255 156.288 12.8109 161.233C12.174 162.665 11.5581 164.109 10.9637 165.564C25.0115 72.1301 105.524 0.499996 202.741 0.5C309.856 0.500005 396.69 87.4565 396.69 194.724C396.69 301.992 309.856 388.948 202.741 388.948ZM185.328 384.796C173.352 384.796 161.655 383.602 150.348 381.326C156.789 382.085 163.343 382.475 169.988 382.475C261.856 382.475 336.329 307.896 336.329 215.899C336.329 123.902 261.856 49.3227 169.988 49.3227C107.265 49.3227 52.651 84.0872 24.3111 135.424C51.971 73.9876 113.663 31.2238 185.328 31.2238C282.825 31.2238 361.864 110.373 361.864 208.01C361.864 305.647 282.825 384.796 185.328 384.796ZM169.988 381.475C160.184 381.475 150.579 380.62 141.243 378.981C140.756 378.818 140.269 378.653 139.784 378.487C144.541 378.928 149.36 379.153 154.232 379.153C239.689 379.153 308.965 309.779 308.965 224.203C308.965 138.626 239.689 69.2518 154.232 69.2518C95.9326 69.2518 45.1639 101.54 18.7842 149.232C19.034 148.523 19.2881 147.815 19.5466 147.11C45.6276 90.0012 103.181 50.3227 169.988 50.3227C261.303 50.3227 335.329 124.453 335.329 215.899C335.329 307.345 261.303 381.475 169.988 381.475ZM154.232 378.153C147.979 378.153 141.813 377.779 135.755 377.053C132.407 375.819 129.102 374.495 125.843 373.084C131.612 373.801 137.49 374.171 143.453 374.171C221.583 374.171 284.918 310.745 284.918 232.506C284.918 154.267 221.583 90.8413 143.453 90.8413C82.1883 90.8413 30.0203 129.84 10.353 184.4C11.6973 174.313 13.891 164.494 16.8598 155.02C42.159 104.74 94.1741 70.2518 154.232 70.2518C239.136 70.2518 307.965 139.177 307.965 224.203C307.965 309.228 239.136 378.153 154.232 378.153ZM119.724 372.186C120.571 372.33 121.419 372.465 122.271 372.593C124.974 373.821 127.71 374.99 130.477 376.096C126.839 374.907 123.254 373.602 119.724 372.186ZM115.012 371.307C118.306 372.731 121.651 374.058 125.044 375.284C119.796 373.803 114.654 372.069 109.632 370.097C111.413 370.534 113.206 370.938 115.012 371.307ZM82.1252 360.203C88.5438 363.299 95.2317 365.925 102.144 368.036C106.107 369.811 110.152 371.435 114.272 372.901C102.992 369.869 92.2233 365.583 82.1252 360.203ZM14.1483 160.696C11.7183 169.532 9.95224 178.643 8.90726 187.973C9.05993 183.498 9.36382 179.06 9.81397 174.666C10.9477 170.237 12.2598 165.879 13.7422 161.6C13.8766 161.298 14.012 160.997 14.1483 160.696ZM5.18752 202.406C5.76224 195.27 6.78883 188.261 8.23862 181.409C7.99937 184.966 7.85527 188.549 7.80883 192.156C6.81181 195.522 5.93634 198.94 5.18752 202.406ZM4.74217 210.211C5.51556 205.348 6.53789 200.567 7.79566 195.883C7.80662 197.77 7.84428 199.65 7.9083 201.523C7.83118 203.676 7.7923 205.838 7.7923 208.01C7.7923 208.717 7.79642 209.424 7.80465 210.129C6.55338 214.89 5.57181 219.761 4.87728 224.724C4.72404 221.801 4.64646 218.859 4.64646 215.899C4.64646 213.995 4.67853 212.099 4.74217 210.211ZM3.66755 218.579C3.72854 222.451 3.92144 226.29 4.24196 230.094C3.84775 234.166 3.64604 238.295 3.64604 242.471C3.64604 243.992 3.67281 245.507 3.7259 247.015C3.23782 242.245 2.98774 237.405 2.98774 232.506C2.98774 227.806 3.2179 223.16 3.66755 218.579Z" stroke="#6246E5"/>
</svg>
