<svg width="285" height="291" viewBox="0 0 285 291" fill="none" xmlns="http://www.w3.org/2000/svg">
<path d="M269.123 195.537C269.123 199.747 268.839 203.891 268.29 207.951C246.086 250.508 202.934 280.4 152.512 283.95C113.862 273.128 85.516 237.643 85.516 195.537C85.516 144.836 126.618 103.734 177.319 103.734C228.021 103.734 269.123 144.836 269.123 195.537ZM269.609 205.359C269.949 202.132 270.123 198.855 270.123 195.537C270.123 144.284 228.573 102.734 177.319 102.734C126.065 102.734 84.516 144.284 84.516 195.537C84.516 237.131 111.879 272.333 149.585 284.126C148.85 284.162 148.113 284.193 147.375 284.219C144.342 284.109 141.336 283.895 138.36 283.58C97.1202 270.229 67.2982 231.508 67.2982 185.821C67.2982 129.083 113.294 83.0872 170.032 83.0872C226.771 83.0872 272.766 129.083 272.766 185.821C272.766 191.008 272.382 196.105 271.64 201.085C270.986 202.523 270.309 203.948 269.609 205.359ZM162.647 283.881C208.093 277.436 246.66 249.612 267.84 210.915C267.694 211.783 267.535 212.648 267.365 213.508C247.553 252.557 208.479 280.183 162.647 283.881ZM268.964 210.241C269.069 209.582 269.167 208.922 269.258 208.259C269.864 207.094 270.454 205.92 271.028 204.737C270.926 205.289 270.819 205.839 270.707 206.388C270.147 207.683 269.566 208.968 268.964 210.241ZM157.497 285.195C204.635 283.279 245.311 256.292 266.55 217.21C266.131 218.938 265.664 220.648 265.149 222.336C246.472 258.071 210.46 283.313 168.274 286.901C164.615 286.543 161.018 285.97 157.497 285.195ZM267.473 217.645C267.781 216.386 268.063 215.116 268.319 213.837C268.754 212.977 269.181 212.11 269.598 211.238C269.21 212.762 268.788 214.273 268.333 215.769C268.051 216.397 267.765 217.022 267.473 217.645ZM174.022 287.283C212.178 282.239 244.77 259.555 263.334 227.692C262.364 230.285 261.281 232.822 260.09 235.297C257.099 240.728 253.632 245.86 249.744 250.635C239.505 262.704 226.764 272.585 212.322 279.475C206.024 282.323 199.388 284.555 192.489 286.093C187.555 286.914 182.487 287.341 177.319 287.341C176.216 287.341 175.116 287.321 174.022 287.283ZM170.032 289.555C174.569 289.555 179.038 289.264 183.422 288.699C177.1 289.802 170.597 290.377 163.96 290.377C152.031 290.377 140.536 288.52 129.748 285.078C137.457 286.899 145.449 287.988 153.646 288.268C158.983 289.115 164.456 289.555 170.032 289.555ZM146.047 286.768C142.161 286.391 138.329 285.829 134.559 285.093C136.53 285.199 138.512 285.266 140.504 285.292C142.331 285.834 144.18 286.326 146.047 286.768ZM153.743 287.271C150.526 286.758 147.358 286.097 144.248 285.293C145.293 285.279 146.335 285.255 147.374 285.219C148.948 285.276 150.53 285.304 152.118 285.304C152.63 285.304 153.141 285.301 153.651 285.296C156.695 286.096 159.8 286.746 162.958 287.236C161.276 287.306 159.586 287.341 157.887 287.341C156.5 287.341 155.118 287.317 153.743 287.271ZM162.243 288.264C164.264 288.193 166.273 288.073 168.268 287.905C171.061 288.175 173.89 288.322 176.749 288.339C174.529 288.482 172.289 288.555 170.032 288.555C167.412 288.555 164.814 288.457 162.243 288.264ZM66.2982 185.821C66.2982 230.307 94.3012 268.253 133.642 282.993C126.707 281.999 119.951 280.455 113.418 278.406C76.6971 259.899 51.5096 221.854 51.5096 177.927C51.5096 115.822 101.855 65.4767 163.96 65.4767C226.064 65.4767 276.41 115.822 276.41 177.927C276.41 182.496 276.137 187.001 275.608 191.427C274.816 193.579 273.973 195.705 273.081 197.806C273.534 193.874 273.766 189.875 273.766 185.821C273.766 128.53 227.323 82.0872 170.032 82.0872C112.741 82.0872 66.2982 128.53 66.2982 185.821ZM50.5096 177.927C50.5096 220.103 73.5246 256.904 107.681 276.456C107.665 276.45 107.649 276.444 107.633 276.438C65.9181 257.358 36.9355 215.258 36.9355 166.389C36.9355 99.589 91.0874 45.4371 157.887 45.4371C224.687 45.4371 278.839 99.589 278.839 166.389C278.839 173.557 278.215 180.58 277.019 187.406C277.278 184.28 277.41 181.119 277.41 177.927C277.41 115.27 226.616 64.4767 163.96 64.4767C101.303 64.4767 50.5096 115.27 50.5096 177.927ZM35.9355 166.389C35.9355 211.208 60.1133 250.38 96.1376 271.574C52.8447 250.719 22.9684 206.426 22.9684 155.155C22.9684 83.8272 80.7907 26.0049 152.118 26.0049C223.446 26.0049 281.268 83.8272 281.268 155.155C281.268 162.785 280.606 170.26 279.337 177.527C279.669 173.859 279.839 170.144 279.839 166.389C279.839 99.0367 225.239 44.4371 157.887 44.4371C90.5351 44.4371 35.9355 99.0367 35.9355 166.389ZM21.9684 155.155C21.9684 211.267 57.4783 259.086 107.252 277.364C110.705 278.942 114.245 280.364 117.862 281.62C118.571 281.936 119.284 282.245 120 282.546C52.2741 271.805 0.5 213.15 0.5 142.402C0.5 64.0318 64.0318 0.5 142.402 0.5C220.773 0.5 284.304 64.0318 284.304 142.402C284.304 152.661 283.216 162.665 281.148 172.306C281.887 166.694 282.268 160.969 282.268 155.155C282.268 83.2749 223.998 25.0049 152.118 25.0049C80.2384 25.0049 21.9684 83.2749 21.9684 155.155ZM134.079 284.064C131.959 283.942 129.852 283.773 127.758 283.558C125.242 282.913 122.758 282.189 120.309 281.389C124.81 282.52 129.405 283.416 134.079 284.064ZM271.666 206.689C272.206 205.439 272.727 204.179 273.228 202.908C272.612 204.854 271.949 206.779 271.239 208.681C271.388 208.02 271.53 207.356 271.666 206.689ZM216.736 278.472C227.735 272.917 237.61 265.46 245.929 256.535C237.808 265.663 227.892 273.16 216.736 278.472ZM269.271 216.12C270.103 214.259 270.89 212.374 271.63 210.465C270.12 215.468 268.271 220.324 266.11 225.006C267.294 222.107 268.35 219.143 269.271 216.12ZM273.516 199.329C273.191 200.221 272.857 201.108 272.513 201.991C272.546 201.785 272.577 201.578 272.608 201.372C272.916 200.694 273.218 200.013 273.516 199.329Z" stroke="#6246E5"/>
</svg>
