<svg width="37" height="31" viewBox="0 0 37 31" fill="none" xmlns="http://www.w3.org/2000/svg">
<path d="M36.3813 1.68027C37.0726 2.87769 36.98 4.30349 36.1385 5.40091L17.6647 29.508C16.9028 30.5021 15.6484 31.009 14.3656 30.7627C13.1095 30.5211 12.1135 29.6055 11.7678 28.3739L8.74965 17.6334L0.957215 9.64938C0.0634732 8.73427 -0.231516 7.41388 0.187342 6.20522C0.601889 5.01043 1.64161 4.14346 2.9235 3.97546L33.0378 0.0302445C34.4089 -0.149744 35.69 0.482903 36.3813 1.68027Z" fill="white"/>
<path d="M19.994 11.1416C20.2751 11.6285 20.1087 12.2516 19.6211 12.5331L9.03443 18.6454L8.74974 17.6335L8.01575 16.881L18.6025 10.7687C19.09 10.4873 19.7129 10.6546 19.994 11.1416Z" fill="url(#paint0_linear_4_17)"/>
<path d="M9.03443 18.6454L19.6211 12.5331C20.1087 12.2516 20.2751 11.6285 19.994 11.1416L8.74974 17.6335L9.03443 18.6454Z" fill="url(#paint1_linear_4_17)"/>
<defs>
<linearGradient id="paint0_linear_4_17" x1="16.6081" y1="10.8569" x2="14.1415" y2="20.2534" gradientUnits="userSpaceOnUse">
<stop stop-color="#747DEF"/>
<stop offset="1" stop-color="#5E3BE1"/>
</linearGradient>
<linearGradient id="paint1_linear_4_17" x1="16.6081" y1="10.8569" x2="14.1415" y2="20.2534" gradientUnits="userSpaceOnUse">
<stop stop-color="#747DEF"/>
<stop offset="1" stop-color="#5E3BE1"/>
</linearGradient>
</defs>
</svg>
