<svg width="46" height="44" viewBox="0 0 46 44" fill="none" xmlns="http://www.w3.org/2000/svg">
<path d="M37.6105 12.9909C38.3018 14.1883 38.2092 15.6141 37.3677 16.7115L18.894 40.8187C18.1321 41.8128 16.8776 42.3196 15.5948 42.0734C14.3387 41.8318 13.3427 40.9161 12.9971 39.6846L10.2635 29.9559L9.97886 28.944L9.24487 28.1915L2.18643 20.96C1.29269 20.0449 0.9977 18.7245 1.41656 17.5159C1.83111 16.3211 2.87082 15.4541 4.15272 15.2861L34.267 11.3409C35.6381 11.1609 36.9192 11.7935 37.6105 12.9909Z" fill="white"/>
<path d="M21.2233 22.452C21.5044 22.939 21.338 23.5621 20.8504 23.8436L10.2637 29.9558L9.97899 28.9439L9.245 28.1914L19.8317 22.0792C20.3193 21.7977 20.9421 21.9651 21.2233 22.452Z" fill="url(#paint0_linear_90_87)"/>
<path d="M10.2636 29.9559L20.8503 23.8437C21.3379 23.5622 21.5044 22.9392 21.2232 22.4521L9.97892 28.944L10.2636 29.9559Z" fill="url(#paint1_linear_90_87)"/>
<defs>
<linearGradient id="paint0_linear_90_87" x1="17.4078" y1="23.5446" x2="18.5453" y2="25.8256" gradientUnits="userSpaceOnUse">
<stop stop-color="#747DEF"/>
<stop offset="1" stop-color="#5E3BE1"/>
</linearGradient>
<linearGradient id="paint1_linear_90_87" x1="17.9028" y1="24.4022" x2="18.5069" y2="25.5264" gradientUnits="userSpaceOnUse">
<stop stop-color="#747DEF"/>
<stop offset="1" stop-color="#5E3BE1"/>
</linearGradient>
</defs>
</svg>
