<svg width="152" height="152" viewBox="0 0 152 152" fill="none" xmlns="http://www.w3.org/2000/svg">
<path d="M11.5586 144.611V146.48H0.837891V144.611H11.5586ZM7.19727 140.045V151.432H5.20996V140.045H7.19727Z" fill="#E5E5E5"/>
<path d="M46.5586 109.611V111.48H35.8379V109.611H46.5586ZM42.1973 105.045V116.432H40.21V105.045H42.1973Z" fill="#E5E5E5"/>
<path d="M77.1973 4.61084H81.5586V6.49072H77.1973V11.4321H75.1992V6.49072H70.8379V4.61084H75.1992V0.0454102H77.1973V4.61084Z" fill="#E5E5E5"/>
<path d="M81.5586 39.6108V41.48H70.8379V39.6108H81.5586ZM77.1973 35.0454V46.4321H75.21V35.0454H77.1973Z" fill="#E5E5E5"/>
<path d="M81.5586 74.6108V76.48H70.8379V74.6108H81.5586ZM77.1973 70.0454V81.4321H75.21V70.0454H77.1973Z" fill="#6246E5"/>
<path d="M81.5586 109.611V111.48H70.8379V109.611H81.5586ZM77.1973 105.045V116.432H75.21V105.045H77.1973Z" fill="#E5E5E5"/>
<path d="M81.5586 144.611V146.48H70.8379V144.611H81.5586ZM77.1973 140.045V151.432H75.21V140.045H77.1973Z" fill="#E5E5E5"/>
<path d="M116.559 4.61084V6.47998H105.838V4.61084H116.559ZM112.197 0.0454102V11.4321H110.21V0.0454102H112.197Z" fill="#E5E5E5"/>
<path d="M116.559 39.6108V41.48H105.838V39.6108H116.559ZM112.197 35.0454V46.4321H110.21V35.0454H112.197Z" fill="#E5E5E5"/>
<path d="M116.559 74.6108V76.48H105.838V74.6108H116.559ZM112.197 70.0454V81.4321H110.21V70.0454H112.197Z" fill="#E5E5E5"/>
<path d="M116.559 109.611V111.48H105.838V109.611H116.559ZM112.197 105.045V116.432H110.21V105.045H112.197Z" fill="#E5E5E5"/>
<path d="M116.559 144.611V146.48H105.838V144.611H116.559ZM112.197 140.045V151.432H110.21V140.045H112.197Z" fill="#E5E5E5"/>
<path d="M147.197 4.61084H151.559V6.49072H147.197V11.4321H145.199V6.49072H140.838V4.61084H145.199V0.0454102H147.197V4.61084Z" fill="#FF7152"/>
<path d="M147.197 39.6108H151.559V41.4907H147.197V46.4321H145.199V41.4907H140.838V39.6108H145.199V35.0454H147.197V39.6108Z" fill="#E5E5E5"/>
<path d="M151.559 74.6108V76.48H140.838V74.6108H151.559ZM147.197 70.0454V81.4321H145.21V70.0454H147.197Z" fill="#E5E5E5"/>
<path d="M151.559 109.611V111.48H140.838V109.611H151.559ZM147.197 105.045V116.432H145.21V105.045H147.197Z" fill="#E5E5E5"/>
<path d="M151.559 144.611V146.48H140.838V144.611H151.559ZM147.197 140.045V151.432H145.21V140.045H147.197Z" fill="#E5E5E5"/>
</svg>
