<svg xmlns="http://www.w3.org/2000/svg">
    <symbol>
       <path id="arrow-down" stroke="#212832" d="M.5.5 5 5 9.5.5"/>
    </symbol>
    <symbol>
        <path id="play" fill="#fff" d="M12 6.5.75 12.995V.005L12 6.5Z"/>
    </symbol>
    <symbol>
    <path id="arrow-up" fill="#080809" d="m16.343 1.76-6.744 15a.62.62 0 0 1-.272.293.602.602 0 0 1-.738-.131.63.63 0 0 1-.158-.37l-.57-6.973-6.84-.581a.607.607 0 0 1-.363-.162.628.628 0 0 1-.13-.752.618.618 0 0 1 .288-.277L15.53.932a.602.602 0 0 1 .69.126.629.629 0 0 1 .123.702Z"/>
    </symbol>
    <symbol id="leaf">
    <path fill="#84829A" d="M13.654.15C13.286.044 4.263-.854 1.094 3.427c-1.404 1.896-1.425 4.496-.07 7.726a16.264 16.264 0 0 0-.89 2.257.456.456 0 1 0 .871.27C3.42 5.87 11.27 2.093 13.676 1.139c.235-.094.548-.822-.022-.988Z"/>
    <path fill="#84829A" d="M2.472 12.13c1.306.548 2.613.829 3.827.829 1.092 0 2.11-.225 2.988-.68 1.765-.916 2.845-2.668 3.12-5.068.28-2.445.63-3.977.922-4.914-2.596 1.197-8.16 4.3-10.857 9.833Z"/>
    </symbol>
    <symbol>
    <path id="map" fill="#84829A" d="M13.5 0a.5.5 0 0 0-.223.053L9.488 1.948 5.204.043C5.197.04 5.189.04 5.18.037a.5.5 0 0 0-.12-.03.744.744 0 0 0-.121 0 .519.519 0 0 0-.12.03c-.007.003-.015.003-.022.006l-4.5 2A.5.5 0 0 0 0 2.5v11a.5.5 0 0 0 .703.457L5 12.047l4.297 1.91c.007.003.015 0 .023.004.12.055.26.052.378-.008.008-.003.017 0 .025-.005l4-2a.5.5 0 0 0 .277-.448V.5a.5.5 0 0 0-.5-.5Zm-9 11.175L1 12.73V2.825L4.5 1.27v9.905ZM9 12.73l-3.5-1.555V1.27L9 2.825v9.905Zm4-1.539-3 1.5V2.809l3-1.5v9.882Z"/>
    </symbol>
    <symbol>
    <path id="plane" fill="#84829A" d="M11.343.242 5.026 6.583a1.352 1.352 0 0 0-.228-.105L.628 5.067a.583.583 0 0 1 0-1.132L10.975.255a.659.659 0 0 1 .21-.036.49.49 0 0 1 .157.023ZM11.746 1.024l-3.681 10.36a.584.584 0 0 1-.583.397.584.584 0 0 1-.584-.409L5.51 7.202a1.354 1.354 0 0 0-.105-.228L11.758.657c.035.12.031.249-.012.367Z"/>
    </symbol>
    <symbol>
    <path id="heart" fill="#4152CA" d="M18.364 2.455A5.479 5.479 0 0 0 14.362.708a5.485 5.485 0 0 0-4.007 1.746L10 2.827l-.353-.373a5.469 5.469 0 0 0-8.012 0 6.134 6.134 0 0 0 0 8.34l7.847 8.275a.715.715 0 0 0 1.037 0l7.845-8.275a6.133 6.133 0 0 0 0-8.34ZM17.33 9.81l-7.328 7.729-7.33-7.73a4.687 4.687 0 0 1 0-6.372 4.04 4.04 0 0 1 5.94 0l.87.92a.736.736 0 0 0 1.038 0l.872-.919a4.04 4.04 0 0 1 5.938 0c1.68 1.8 1.693 4.583 0 6.372Z"/>
    </symbol>
    <symbol id="skyscrapper">
    <path fill="#84829A" d="M.267 15.467h1.6v-8.8c0-.148.12-.267.266-.267h3.734V.267c0-.148.12-.267.266-.267h6.934c.147 0 .266.12.266.267v15.2h2.4a.267.267 0 1 1 0 .533H.267a.267.267 0 0 1 0-.533Zm10.133 0h1.067v-2.4a.267.267 0 0 0-.267-.267h-.533a.267.267 0 0 0-.267.267v2.4Zm-1.067-8.8v8.8h.534v-2.4a.8.8 0 0 1 .8-.8h.533a.8.8 0 0 1 .8.8v2.4h.8V.533H6.4V6.4h2.667c.147 0 .266.12.266.267Zm-6.933 8.8h6.4V6.933H2.4v8.534Z"/>
    <path fill="#84829A" d="M7.467 3.733h1.6c.147 0 .266.12.266.267v1.6c0 .147-.12.267-.266.267h-1.6A.267.267 0 0 1 7.2 5.6V4c0-.147.12-.267.267-.267Zm.266 1.6H8.8V4.267H7.733v1.066ZM7.467 1.067h1.6c.147 0 .266.12.266.266v1.6c0 .148-.12.267-.266.267h-1.6a.267.267 0 0 1-.267-.267v-1.6c0-.147.12-.266.267-.266Zm.266 1.6H8.8V1.6H7.733v1.067ZM10.133 3.733h1.6c.148 0 .267.12.267.267v1.6c0 .147-.12.267-.267.267h-1.6a.267.267 0 0 1-.266-.267V4c0-.147.12-.267.266-.267Zm.267 1.6h1.067V4.267H10.4v1.066ZM10.133 1.067h1.6c.148 0 .267.12.267.266v1.6c0 .148-.12.267-.267.267h-1.6a.267.267 0 0 1-.266-.267v-1.6c0-.147.12-.266.266-.266Zm.267 1.6h1.067V1.6H10.4v1.067ZM10.133 6.4h1.6c.148 0 .267.12.267.267v1.6c0 .147-.12.266-.267.266h-1.6a.267.267 0 0 1-.266-.266v-1.6c0-.148.12-.267.266-.267ZM10.4 8h1.067V6.933H10.4V8ZM10.133 9.067h1.6c.148 0 .267.119.267.266v1.6c0 .148-.12.267-.267.267h-1.6a.267.267 0 0 1-.266-.267v-1.6c0-.147.12-.266.266-.266Zm.267 1.6h1.067V9.6H10.4v1.067ZM5.067 12.267h-1.6A.267.267 0 0 1 3.2 12v-1.6c0-.147.12-.267.267-.267h1.6c.147 0 .266.12.266.267V12c0 .147-.12.267-.266.267Zm-.267-1.6H3.733v1.066H4.8v-1.066ZM5.067 9.6h-1.6a.267.267 0 0 1-.267-.267v-1.6c0-.147.12-.266.267-.266h1.6c.147 0 .266.119.266.266v1.6c0 .147-.12.267-.266.267ZM4.8 8H3.733v1.067H4.8V8ZM5.067 14.933h-1.6a.267.267 0 0 1-.267-.266v-1.6c0-.148.12-.267.267-.267h1.6c.147 0 .266.12.266.267v1.6c0 .147-.12.266-.266.266Zm-.267-1.6H3.733V14.4H4.8v-1.067ZM7.733 12.267h-1.6A.267.267 0 0 1 5.867 12v-1.6c0-.147.12-.267.266-.267h1.6c.148 0 .267.12.267.267V12c0 .147-.12.267-.267.267Zm-.266-1.6H6.4v1.066h1.067v-1.066ZM7.733 9.6h-1.6a.267.267 0 0 1-.266-.267v-1.6c0-.147.12-.266.266-.266h1.6c.148 0 .267.119.267.266v1.6c0 .147-.12.267-.267.267ZM7.467 8H6.4v1.067h1.067V8ZM7.733 14.933h-1.6a.267.267 0 0 1-.266-.266v-1.6c0-.148.12-.267.266-.267h1.6c.148 0 .267.12.267.267v1.6c0 .147-.12.266-.267.266Zm-.266-1.6H6.4V14.4h1.067v-1.067Z"/>
    </symbol>
    <symbol>
    <path id="facebook" d="M23.54 0H1.46C0.929 0 0.5 0.429 0.5 0.96V23.04C0.5 23.571 0.929 24 1.46 24H23.54C24.071 24 24.5 23.571 24.5 23.04V0.96C24.5 0.429 24.071 0 23.54 0ZM20.768 7.005H18.851C17.348 7.005 17.057 7.719 17.057 8.769V11.082H20.645L20.177 14.703H17.057V24H13.316V14.706H10.187V11.082H13.316V8.412C13.316 5.313 15.209 3.624 17.975 3.624C19.301 3.624 20.438 3.723 20.771 3.768V7.005H20.768Z" fill="#335BF5"/>
    </symbol>
    <symbol>
    <path id="instagram" fill="#E61F5A" d="M12.502 5.847A6.144 6.144 0 0 0 6.349 12a6.144 6.144 0 0 0 6.153 6.153A6.144 6.144 0 0 0 18.655 12a6.144 6.144 0 0 0-6.153-6.153Zm0 10.152a4.007 4.007 0 0 1-4-3.999 4.007 4.007 0 0 1 4-3.999 4.007 4.007 0 0 1 3.999 4 4.007 4.007 0 0 1-4 3.998Zm6.405-11.838c-.795 0-1.437.642-1.437 1.437s.642 1.437 1.437 1.437a1.433 1.433 0 0 0 1.328-1.987 1.434 1.434 0 0 0-1.328-.887Zm5.589 7.84c0-1.657.015-3.298-.078-4.95-.093-1.92-.531-3.625-1.935-5.029C21.076.615 19.375.18 17.455.087 15.799-.006 14.158.01 12.505.01c-1.656 0-3.297-.015-4.95.078C5.635.18 3.93.618 2.527 2.022 1.12 3.43.685 5.13.592 7.05.499 8.706.514 10.347.514 12s-.015 3.297.078 4.95c.093 1.92.53 3.624 1.935 5.028 1.407 1.407 3.108 1.842 5.028 1.935 1.656.093 3.297.078 4.95.078 1.656 0 3.297.015 4.95-.078 1.92-.093 3.624-.53 5.028-1.935 1.407-1.407 1.842-3.108 1.935-5.028.096-1.653.078-3.294.078-4.95Zm-2.64 7.073a3.812 3.812 0 0 1-.906 1.374 3.838 3.838 0 0 1-1.374.906c-1.578.627-5.325.486-7.074.486-1.75 0-5.5.141-7.077-.483a3.812 3.812 0 0 1-1.374-.906 3.838 3.838 0 0 1-.906-1.374c-.624-1.58-.483-5.328-.483-7.077 0-1.749-.141-5.499.483-7.077.219-.546.483-.954.906-1.374.423-.42.828-.687 1.374-.906 1.578-.624 5.328-.483 7.077-.483 1.749 0 5.499-.14 7.077.483.546.22.954.483 1.374.906.423.423.687.828.906 1.374.624 1.578.483 5.328.483 7.077 0 1.75.14 5.496-.486 7.074Z"/>
    </symbol>
    <symbol>
    <path id="twitter" fill="#21A6DF" d="M24.5 2.465a9.74 9.74 0 0 1-2.829.772A4.96 4.96 0 0 0 23.832.49a9.613 9.613 0 0 1-3.117 1.205A4.902 4.902 0 0 0 19.08.526a4.84 4.84 0 0 0-1.956-.408c-2.723 0-4.913 2.24-4.913 4.988 0 .386.046.772.121 1.143a13.896 13.896 0 0 1-10.13-5.22 5.007 5.007 0 0 0-.668 2.518c0 1.731.867 3.257 2.19 4.155a4.901 4.901 0 0 1-2.222-.635v.062c0 2.424 1.688 4.432 3.939 4.894a5.133 5.133 0 0 1-1.294.17c-.32 0-.622-.032-.928-.076a4.931 4.931 0 0 0 4.593 3.459 9.756 9.756 0 0 1-6.1 2.131c-.412 0-.792-.015-1.187-.061a13.765 13.765 0 0 0 7.546 2.236c9.035 0 13.98-7.596 13.98-14.189 0-.216 0-.432-.015-.649.957-.71 1.795-1.59 2.463-2.579Z"/>
    </symbol>
    <symbol>
    <path id="youtube" d="M23.9699 2.9313C23.8335 2.39833 23.5663 1.9124 23.1951 1.52212C22.824 1.13185 22.3619 0.850924 21.855 0.707468C19.9884 0.17627 12.4879 0.17627 12.4879 0.17627C12.4879 0.17627 4.98729 0.17627 3.12071 0.707468C2.61385 0.850924 2.15172 1.13185 1.78057 1.52212C1.40941 1.9124 1.14225 2.39833 1.00582 2.9313C0.657288 4.93298 0.488155 6.96464 0.500644 8.99956C0.488155 11.0345 0.657288 13.0661 1.00582 15.0678C1.14225 15.6008 1.40941 16.0867 1.78057 16.477C2.15172 16.8673 2.61385 17.1482 3.12071 17.2917C4.98729 17.8229 12.4879 17.8229 12.4879 17.8229C12.4879 17.8229 19.9884 17.8229 21.855 17.2917C22.3619 17.1482 22.824 16.8673 23.1951 16.477C23.5663 16.0867 23.8335 15.6008 23.9699 15.0678C24.3184 13.0661 24.4876 11.0345 24.4751 8.99956C24.4876 6.96464 24.3184 4.93298 23.9699 2.9313ZM10.0904 12.781V5.21815L16.3152 8.99956L10.0904 12.781Z" fill="#E42F08"/>
    </symbol>
    <symbol>
    <path id="burger" fill="#737373" d="M.572 0h22.857v2.286H.572V0Zm5.714 5.714h17.143V8H6.286V5.714Zm7.143 5.715h10v2.285h-10V11.43Z"/>
    </symbol>
    <symbol id="play-icon">
    <path d="M11.5073 10.0018L1.46381 19.673C0.993483 19.3516 0.714243 18.8169 0.719181 18.2473V1.75622C0.714243 1.18659 0.993483 0.651949 1.46381 0.330525L11.5073 10.0018Z" fill="#2196F3"/>
    <path d="M15.0217 6.62364L11.5073 10.0018L1.46381 0.330525C1.50165 0.301196 1.54107 0.273918 1.58185 0.248803C2.11266 -0.0729184 2.77569 -0.0833047 3.31633 0.22156L15.0217 6.62364Z" fill="#4CAF50"/>
    <path d="M19.2807 10.0018C19.2872 10.6448 18.9378 11.2388 18.3726 11.5456L15.0217 13.3799L11.5073 10.0018L15.0217 6.62364L18.3726 8.45799C18.9378 8.76473 19.2872 9.35871 19.2807 10.0018Z" fill="#F0BB1F"/>
    <path d="M15.0217 13.3799L3.31633 19.782C2.77449 20.0821 2.11398 20.0717 1.58185 19.7547C1.54107 19.7296 1.50165 19.7023 1.46381 19.673L11.5073 10.0018L15.0217 13.3799Z" fill="#F15A2B"/>
    </symbol>
    <symbol id="play-text">
    <path fill="#fff" d="M6.024 2.88H3.216V4h1.496c-.2.536-.688.864-1.432.864-1.088 0-1.76-.696-1.76-1.648 0-.984.704-1.68 1.648-1.68.632 0 1.136.288 1.368.656l1.088-.624C5.152.816 4.248.288 3.176.288A2.904 2.904 0 0 0 .24 3.208c0 1.608 1.264 2.904 3.024 2.904 1.568 0 2.76-1.04 2.76-2.752v-.48ZM7.626 4.768v-.992h2V2.56h-2v-.928h2.2V.4h-3.48V6h3.52V4.768h-2.24Z"/>
    <path fill="#fff" d="M13.948.4h-4.16v1.232h1.44V6h1.28V1.632h1.44V.4ZM15.708.4V6h1.28V.4h-1.28ZM21.31.4h-4.16v1.232h1.44V6h1.28V1.632h1.44V.4ZM25.743 6.112A2.887 2.887 0 0 0 28.655 3.2 2.887 2.887 0 0 0 25.743.288 2.887 2.887 0 0 0 22.83 3.2a2.887 2.887 0 0 0 2.912 2.912Zm0-1.248c-.912 0-1.632-.664-1.632-1.664 0-1 .72-1.664 1.632-1.664.912 0 1.632.664 1.632 1.664 0 1-.72 1.664-1.632 1.664ZM32.095.4v3.04L29.935.4h-.96V6h1.28V2.96L32.415 6h.96V.4h-1.28ZM6.024 12.392v.216c0 .699-.248 1.288-.744 1.768-.496.475-1.15.712-1.96.712-.853 0-1.557-.277-2.112-.832-.555-.56-.832-1.245-.832-2.056 0-.81.275-1.493.824-2.048.55-.56 1.245-.84 2.088-.84.512 0 .981.123 1.408.368.432.245.765.573 1 .984l-.376.224a2.118 2.118 0 0 0-.832-.848 2.323 2.323 0 0 0-1.2-.32c-.725 0-1.323.24-1.792.72C1.032 10.915.8 11.501.8 12.2c0 .699.235 1.288.704 1.768.47.475 1.075.712 1.816.712.656 0 1.187-.179 1.592-.536a1.97 1.97 0 0 0 .68-1.352H3.216v-.4h2.808ZM11.703 14.248c-.56.56-1.243.84-2.048.84-.806 0-1.488-.28-2.048-.84a2.804 2.804 0 0 1-.84-2.048c0-.8.28-1.48.84-2.04a2.773 2.773 0 0 1 2.048-.848c.805 0 1.488.283 2.048.848.56.56.84 1.24.84 2.04s-.28 1.483-.84 2.048Zm-3.8-.288c.48.48 1.064.72 1.752.72s1.269-.24 1.744-.72c.48-.485.72-1.072.72-1.76s-.24-1.272-.72-1.752a2.345 2.345 0 0 0-1.744-.728c-.688 0-1.272.243-1.752.728A2.398 2.398 0 0 0 7.19 12.2c0 .688.237 1.275.712 1.76ZM18.234 14.248c-.56.56-1.243.84-2.048.84-.806 0-1.488-.28-2.048-.84a2.804 2.804 0 0 1-.84-2.048c0-.8.28-1.48.84-2.04a2.773 2.773 0 0 1 2.048-.848c.805 0 1.488.283 2.048.848.56.56.84 1.24.84 2.04s-.28 1.483-.84 2.048Zm-3.8-.288c.48.48 1.064.72 1.752.72s1.27-.24 1.744-.72c.48-.485.72-1.072.72-1.76s-.24-1.272-.72-1.752a2.345 2.345 0 0 0-1.744-.728c-.688 0-1.272.243-1.752.728a2.398 2.398 0 0 0-.712 1.752c0 .688.237 1.275.712 1.76ZM25.477 12.392v.216c0 .699-.248 1.288-.744 1.768-.496.475-1.15.712-1.96.712-.853 0-1.557-.277-2.112-.832-.555-.56-.832-1.245-.832-2.056 0-.81.275-1.493.824-2.048.55-.56 1.245-.84 2.088-.84.512 0 .981.123 1.408.368.432.245.765.573 1 .984l-.376.224a2.118 2.118 0 0 0-.832-.848 2.323 2.323 0 0 0-1.2-.32c-.725 0-1.323.24-1.792.72-.464.475-.696 1.061-.696 1.76 0 .699.235 1.288.704 1.768.47.475 1.075.712 1.816.712.656 0 1.187-.179 1.592-.536a1.97 1.97 0 0 0 .68-1.352H22.67v-.4h2.808ZM26.964 14.6h2.64v.4H26.54V9.4h.424v5.2ZM30.91 14.6h2.8v.4h-3.225V9.4h3.184v.4h-2.76v2.176h2.56v.4h-2.56V14.6ZM38.788 9.4c.5 0 .917.165 1.248.496.33.33.495.744.495 1.24s-.165.91-.495 1.24c-.331.325-.747.488-1.248.488h-1.48V15h-.425V9.4h1.904Zm0 3.064c.384 0 .698-.125.944-.376.25-.25.376-.568.376-.952 0-.39-.126-.71-.377-.96-.245-.25-.56-.376-.944-.376h-1.48v2.664h1.48ZM42.003 14.6h2.64v.4h-3.064V9.4h.424v5.2ZM49.448 15l-.544-1.424h-2.808L45.552 15h-.448l2.176-5.6h.448l2.168 5.6h-.448Zm-3.192-1.824h2.496L47.504 9.92l-1.248 3.256ZM53.88 9.4l-2.04 3.296V15h-.423v-2.304L49.377 9.4h.48l1.776 2.888L53.4 9.4h.48Z"/>
    </symbol>
    <symbol>
    <path id="apple-icon" fill="#fff" d="M4.79 16C2.407 15.986.437 11.125.437 8.65c0-4.044 3.034-4.93 4.203-4.93.527 0 1.09.207 1.586.39.347.128.706.26.905.26.12 0 .401-.112.65-.21.53-.212 1.19-.474 1.958-.474h.004c.574 0 2.313.126 3.358 1.696l.245.368-.352.266c-.504.38-1.423 1.073-1.423 2.446 0 1.626 1.04 2.251 1.54 2.552.221.133.45.27.45.569 0 .195-1.56 4.393-3.826 4.393-.554 0-.946-.167-1.292-.314-.35-.149-.65-.277-1.15-.277-.252 0-.572.12-.91.246-.462.173-.985.369-1.58.369H4.79ZM9.98 0c.059 2.127-1.463 3.603-2.983 3.51C6.747 1.814 8.518 0 9.98 0Z"/>
    </symbol>
    <symbol>
    <path id="apple-text" fill="#fff" d="M3.03 5h1.05L2.652.8H1.428L0 5h1.05l.21-.66h1.56l.21.66ZM1.548 3.44l.492-1.542.492 1.542h-.984ZM6.205 2 5.58 3.902 4.957 2H3.96l1.11 3h1.02L7.2 2h-.996ZM9.592 2v.282c-.198-.228-.492-.366-.894-.366-.786 0-1.434.69-1.434 1.584 0 .894.648 1.584 1.434 1.584.402 0 .696-.138.894-.366V5h.9V2h-.9Zm-.714 2.232c-.414 0-.714-.282-.714-.732s.3-.732.714-.732.714.282.714.732-.3.732-.714.732ZM11.152 5h.9V.62h-.9V5ZM13.16 1.736c.295 0 .54-.246.54-.54a.546.546 0 0 0-.54-.54.546.546 0 0 0-.54.54c0 .294.247.54.54.54ZM12.71 5h.9V2h-.9v3ZM16.064 1.916c-.402 0-.697.138-.895.366V.8h-.9V5h.9v-.282c.198.228.492.366.895.366.785 0 1.433-.69 1.433-1.584 0-.894-.648-1.584-1.433-1.584Zm-.18 2.316c-.415 0-.715-.282-.715-.732s.3-.732.714-.732c.415 0 .715.282.715.732s-.3.732-.714.732ZM18.008 5h.9V.62h-.9V5ZM20.37 3.86h2.13c.024-.114.036-.234.036-.36 0-.906-.648-1.584-1.524-1.584-.948 0-1.596.69-1.596 1.584 0 .894.636 1.584 1.662 1.584.57 0 1.014-.21 1.308-.618l-.72-.414a.783.783 0 0 1-.576.228c-.33 0-.606-.108-.72-.42Zm-.018-.672c.084-.306.312-.474.654-.474.27 0 .54.126.636.474h-1.29ZM25.987 5.084c.882 0 1.59-.69 1.59-1.584 0-.894-.708-1.584-1.59-1.584-.882 0-1.59.69-1.59 1.584 0 .894.708 1.584 1.59 1.584Zm0-.876c-.39 0-.69-.282-.69-.708s.3-.708.69-.708c.39 0 .69.282.69.708s-.3.708-.69.708ZM29.844 1.916c-.396 0-.696.144-.858.366V2h-.9v3h.9V3.362c0-.426.228-.618.558-.618.288 0 .522.174.522.546V5h.9V3.158c0-.81-.516-1.242-1.122-1.242ZM34.842 2.864V2h-.618v-.84l-.9.27V2h-.48v.864h.48v1.062c0 .84.342 1.194 1.518 1.074v-.816c-.396.024-.618 0-.618-.258V2.864h.618ZM37.11 1.916c-.396 0-.697.144-.858.366V.8h-.9V5h.9V3.362c0-.426.227-.618.557-.618.288 0 .523.174.523.546V5h.9V3.158c0-.81-.517-1.242-1.123-1.242ZM39.654 3.86h2.13c.023-.114.035-.234.035-.36 0-.906-.648-1.584-1.524-1.584-.948 0-1.596.69-1.596 1.584 0 .894.637 1.584 1.663 1.584.57 0 1.014-.21 1.307-.618l-.72-.414a.783.783 0 0 1-.575.228c-.33 0-.607-.108-.72-.42Zm-.019-.672c.084-.306.313-.474.654-.474.27 0 .54.126.636.474h-1.29ZM5.05 16H6.8L4.42 9H2.38L0 16h1.75l.35-1.1h2.6l.35 1.1Zm-2.47-2.6.82-2.57.82 2.57H2.58ZM10.337 10.86c-.67 0-1.16.23-1.49.61V11h-1.5v7h1.5v-2.47c.33.38.82.61 1.49.61 1.31 0 2.39-1.15 2.39-2.64 0-1.49-1.08-2.64-2.39-2.64Zm-.3 3.86c-.69 0-1.19-.47-1.19-1.22s.5-1.22 1.19-1.22 1.19.47 1.19 1.22-.5 1.22-1.19 1.22ZM16.567 10.86c-.67 0-1.16.23-1.49.61V11h-1.5v7h1.5v-2.47c.33.38.82.61 1.49.61 1.31 0 2.39-1.15 2.39-2.64 0-1.49-1.08-2.64-2.39-2.64Zm-.3 3.86c-.69 0-1.19-.47-1.19-1.22s.5-1.22 1.19-1.22 1.19.47 1.19 1.22-.5 1.22-1.19 1.22ZM19.808 16h1.5V8.7h-1.5V16ZM23.745 14.1h3.55c.04-.19.06-.39.06-.6 0-1.51-1.08-2.64-2.54-2.64-1.58 0-2.66 1.15-2.66 2.64 0 1.49 1.06 2.64 2.77 2.64.95 0 1.69-.35 2.18-1.03l-1.2-.69c-.2.22-.55.38-.96.38-.55 0-1.01-.18-1.2-.7Zm-.03-1.12c.14-.51.52-.79 1.09-.79.45 0 .9.21 1.06.79h-2.15ZM33.206 16.14c1.52 0 2.6-.8 2.6-2.15 0-1.48-1.19-1.85-2.25-2.17-1.09-.33-1.26-.55-1.26-.87 0-.28.25-.53.75-.53.64 0 .97.31 1.21.81l1.35-.79c-.51-1.03-1.41-1.58-2.56-1.58-1.21 0-2.35.78-2.35 2.13 0 1.34 1.02 1.84 2.06 2.13 1.05.29 1.45.46 1.45.89 0 .27-.19.57-.95.57-.79 0-1.22-.39-1.47-.97l-1.38.8c.39 1.03 1.33 1.73 2.8 1.73ZM39.34 12.44V11h-1.03V9.6l-1.5.45V11h-.8v1.44h.8v1.77c0 1.4.57 1.99 2.53 1.79v-1.36c-.66.04-1.03 0-1.03-.43v-1.77h1.03ZM42.491 16.14c1.47 0 2.65-1.15 2.65-2.64 0-1.49-1.18-2.64-2.65-2.64s-2.65 1.15-2.65 2.64c0 1.49 1.18 2.64 2.65 2.64Zm0-1.46c-.65 0-1.15-.47-1.15-1.18s.5-1.18 1.15-1.18c.65 0 1.15.47 1.15 1.18s-.5 1.18-1.15 1.18ZM47.49 11.89V11h-1.5v5h1.5v-2.26c0-.99.88-1.24 1.5-1.14v-1.7c-.63 0-1.3.32-1.5.99ZM50.884 14.1h3.55c.04-.19.06-.39.06-.6 0-1.51-1.08-2.64-2.54-2.64-1.58 0-2.66 1.15-2.66 2.64 0 1.49 1.06 2.64 2.77 2.64.95 0 1.69-.35 2.18-1.03l-1.2-.69c-.2.22-.55.38-.96.38-.55 0-1.01-.18-1.2-.7Zm-.03-1.12c.14-.51.52-.79 1.09-.79.45 0 .9.21 1.06.79h-2.15Z"/>
    </symbol>
</svg>